<svg fill="none" height="64" viewBox="0 0 64 64" width="64" xmlns="http://www.w3.org/2000/svg" xmlns:xlink="http://www.w3.org/1999/xlink"><filter id="a" color-interpolation-filters="sRGB" filterUnits="userSpaceOnUse" height="19.9778" width="21.5212" x="4.13978" y="31.711"><feFlood flood-opacity="0" result="BackgroundImageFix"/><feBlend in="SourceGraphic" in2="BackgroundImageFix" mode="normal" result="shape"/><feGaussianBlur result="effect1_foregroundBlur_9_184" stdDeviation=".23504"/></filter><filter id="b" color-interpolation-filters="sRGB" filterUnits="userSpaceOnUse" height="16.1034" width="20.0105" x="30.8429" y="4.33351"><feFlood flood-opacity="0" result="BackgroundImageFix"/><feBlend in="SourceGraphic" in2="BackgroundImageFix" mode="normal" result="shape"/><feGaussianBlur result="effect1_foregroundBlur_9_184" stdDeviation=".23504"/></filter><filter id="c" color-interpolation-filters="sRGB" filterUnits="userSpaceOnUse" height="17.8175" width="21.8684" x="10.8639" y="4.29896"><feFlood flood-opacity="0" result="BackgroundImageFix"/><feBlend in="SourceGraphic" in2="BackgroundImageFix" mode="normal" result="shape"/><feGaussianBlur result="effect1_foregroundBlur_9_184" stdDeviation=".23504"/></filter><filter id="d" color-interpolation-filters="sRGB" filterUnits="userSpaceOnUse" height="27.6751" width="29.6897" x="29.1281" y="32.1481"><feFlood flood-opacity="0" result="BackgroundImageFix"/><feBlend in="SourceGraphic" in2="BackgroundImageFix" mode="normal" result="shape"/><feGaussianBlur result="effect1_foregroundBlur_9_184" stdDeviation=".23504"/></filter><filter id="e" color-interpolation-filters="sRGB" filterUnits="userSpaceOnUse" height="12.1096" width="27.6662" x="31.1994" y="26.1265"><feFlood flood-opacity="0" result="BackgroundImageFix"/><feBlend in="SourceGraphic" in2="BackgroundImageFix" mode="normal" result="shape"/><feGaussianBlur result="effect1_foregroundBlur_9_184" stdDeviation=".23504"/></filter><filter id="f" color-interpolation-filters="sRGB" filterUnits="userSpaceOnUse" height="20.6039" width="18.0222" x="4.13441" y="13.1338"><feFlood flood-opacity="0" result="BackgroundImageFix"/><feBlend in="SourceGraphic" in2="BackgroundImageFix" mode="normal" result="shape"/><feGaussianBlur result="effect1_foregroundBlur_9_184" stdDeviation=".23504"/></filter><filter id="g" color-interpolation-filters="sRGB" filterUnits="userSpaceOnUse" height="20.2295" width="22.5692" x="6.77718" y="3.67269"><feFlood flood-opacity="0" result="BackgroundImageFix"/><feBlend in="SourceGraphic" in2="BackgroundImageFix" mode="normal" result="shape"/><feGaussianBlur result="effect1_foregroundBlur_9_184" stdDeviation="1.65243"/></filter><filter id="h" color-interpolation-filters="sRGB" filterUnits="userSpaceOnUse" height="14.5503" width="20.4504" x="12.0846" y="45.3141"><feFlood flood-opacity="0" result="BackgroundImageFix"/><feBlend in="SourceGraphic" in2="BackgroundImageFix" mode="normal" result="shape"/><feGaussianBlur result="effect1_foregroundBlur_9_184" stdDeviation=".23504"/></filter><filter id="i" color-interpolation-filters="sRGB" filterUnits="userSpaceOnUse" height="12.7947" width="7.52268" x="28.3034" y="47.0698"><feFlood flood-opacity="0" result="BackgroundImageFix"/><feBlend in="SourceGraphic" in2="BackgroundImageFix" mode="normal" result="shape"/><feGaussianBlur result="effect1_foregroundBlur_9_184" stdDeviation=".23504"/></filter><clipPath id="j"><path d="m5 5h53v54h-53z"/></clipPath><mask id="k" height="54" maskUnits="userSpaceOnUse" width="53" x="5" y="5"><path d="m57.491 26.9909h-25.4265v10.3806h14.6102c-.2349 1.4691-.7622 2.9143-1.5345 4.2321-.8848 1.5099-1.9787 2.6593-3.0999 3.5347-3.3586 2.6221-7.2742 3.1583-9.9935 3.1583-6.8695 0-12.7389-4.5236-15.0111-10.6703-.0917-.2231-.1526-.4535-.2268-.6812-.5021-1.5644-.7764-3.2213-.7764-4.9434 0-1.7922.2971-3.5078.8387-5.1281 2.1367-6.3904 8.1385-11.1635 15.1805-11.1635 1.4164 0 2.7804.1718 4.0739.5144 2.9562.7831 5.0472 2.3253 6.3285 3.5451l7.7312-7.7141c-4.7028-4.39337-10.8335-7.0555-18.1465-7.0555-5.8462-.00013-11.2437 1.85576-15.6668 4.99226-3.5869 2.54364-6.52877 5.94924-8.51414 9.90444-1.84668 3.6673-2.85786 7.7313-2.85786 12.101 0 4.3698 1.01272 8.4761 2.85941 12.1095v.0244c1.95056 3.8574 4.80299 7.1786 8.26969 9.7105 3.0286 2.212 8.4592 5.1579 15.9097 5.1579 4.2847 0 8.082-.7871 11.4309-2.2621 2.4159-1.064 4.5564-2.4518 6.4944-4.2355 2.5606-2.3568 4.5661-5.2719 5.9349-8.6258 1.3688-3.354 2.101-7.1467 2.101-11.2586 0-1.915-.1888-3.8598-.509-5.6273z" fill="#fff"/></mask><g clip-path="url(#j)"><g mask="url(#k)"><g filter="url(#a)"><path d="m4.60986 32.181c.02811 4.3009 1.23093 8.7383 3.0516 12.3205v.0247c1.31552 2.6014 3.11344 4.6564 5.16124 6.6925l12.3684-4.5981c-2.3401-1.2111-2.6971-1.9532-4.3745-3.3073-1.7142-1.7611-2.9918-3.7829-3.7874-6.1535h-.0321l.0321-.0246c-.5234-1.5655-.5751-3.2272-.5944-4.9542z" fill="#00e7f6"/></g><g filter="url(#b)"><path d="m32.0647 4.80359c-1.2225 4.37578-.7551 8.62921 0 11.10401 1.4116.0011 2.7715.1725 4.061.5141 2.9562.783 5.047 2.3252 6.3283 3.5451l7.9291-7.9112c-4.6972-4.38814-10.3501-7.2451-18.3184-7.25201z" fill="#00e7f6"/></g><g filter="url(#c)"><path d="m32.0382 4.76904c-5.9963-.00013-11.5324 1.9034-16.069 5.12044-1.6844 1.19452-3.2302 2.57432-4.6066 4.10872-.3606 3.4467 2.6992 7.683 8.7588 7.648 2.94-3.4845 7.2882-5.7389 12.1278-5.7389.0045 0 .0087.0003.0132.0004l-.1977-11.13787c-.0089 0-.0176-.00079-.0265-.00079z" fill="#00e7f6"/></g><g filter="url(#d)"><path d="m51.8293 33.4283-5.3521 3.7462c-.2349 1.4691-.7626 2.9143-1.5349 4.2321-.8848 1.5099-1.9787 2.6594-3.0999 3.5347-3.3516 2.6168-7.2568 3.1555-9.9754 3.1577-2.81 4.8763-3.3027 7.3187.1976 11.2542 4.3312-.0032 8.171-.7998 11.5579-2.2916 2.4483-1.0783 4.6175-2.4848 6.5814-4.2924 2.595-2.3883 4.6277-5.3427 6.0149-8.7416 1.3871-3.3989 2.1289-7.2423 2.1289-11.4094z" fill="#00e7f6"/></g><g filter="url(#e)"><path d="m31.6694 26.5966v11.1694h25.7504c.2265-1.5297.9755-3.5091.9755-5.1478 0-1.915-.1886-4.2541-.5088-6.0216z" fill="#00e7f6"/></g><g filter="url(#f)"><path d="m11.4853 13.6039c-1.5891 1.7714-2.94665 3.7542-4.02302 5.8985-1.84666 3.6673-2.85779 8.1257-2.85779 12.4954 0 .0615.005.1218.00541.1833.81782 1.5976 11.2968 1.2917 11.825 0-.0007-.0603-.0074-.1191-.0074-.1795 0-1.7922.2972-3.1132.8389-4.7335.6682-1.9986 1.7145-3.8391 3.0525-5.4248.3033-.3945 1.1123-1.2426 1.3483-1.7514.0899-.1937-.1632-.3025-.1774-.3707-.0158-.0763-.3552-.0149-.4313-.0718-.2414-.1804-.7195-.2746-1.0098-.3583-.6204-.179-1.6488-.5738-2.2199-.983-1.8054-1.2935-4.6229-2.8385-6.3435-4.7042z" fill="#00e7f6"/></g><g filter="url(#g)"><path d="m17.8673 19.7288c4.1866 2.5839 5.3906-1.3042 8.1741-2.5209l-4.842-10.23036c-1.7811.76274-3.464 1.71037-5.0254 2.81759-2.3318 1.65357-4.391 3.67137-6.092 5.96767z" fill="#00e7f6"/></g><g filter="url(#h)"><path d="m19.5718 45.8302c-5.62 2.0672-6.4998 2.1413-7.0171 5.6899.9885.9829 2.0507 1.892 3.1794 2.7164 3.0286 2.2119 8.8543 5.1578 16.3048 5.1578.0088 0 .0172-.0007.0259-.0007v-11.4918c-.0056 0-.0121.0004-.0177.0004-2.79 0-5.0195-.7466-7.3054-2.045-.5636-.3201-1.5861.5395-2.1059.1552-.7169-.53-2.4422.4566-3.064-.1822z" fill="#00e7f6"/></g><g filter="url(#i)" opacity=".5"><path d="m28.7734 47.5399v11.6547c1.0425.1243 2.1274.1998 3.2655.1998 1.1409 0 2.2446-.0597 3.3172-.1694v-11.6065c-1.202.2093-2.334.2838-3.3091.2838-1.1231 0-2.2153-.1332-3.2736-.3624z" fill="#00e7f6"/></g></g></g></svg>