<svg fill="none" height="64" viewBox="0 0 64 64" width="64" xmlns="http://www.w3.org/2000/svg" xmlns:xlink="http://www.w3.org/1999/xlink"><clipPath id="a"><path d="m2 17h60v30h-60z"/></clipPath><g clip-path="url(#a)" fill="#00e7f6"><path d="m47.9612 25.1135c-.7929 0-1.5384.303-2.0964.8535l-2.2551 2.2185c-.6083.5985-.9209 1.4295-.8568 2.2815.0045.0465.0091.093.0137.141.0808.654.372 1.2435.8431 1.7055.3248.3195.6831.522 1.1176.663.0229.129.0351.2595.0351.39 0 .588-.2317 1.14-.6526 1.554l-.1387.1365c-.7532-.2535-1.3814-.624-1.9486-1.182-.7531-.741-1.2517-1.677-1.4393-2.7045l-.0259-.1425-.1144.0915c-.0777.0615-.1509.1275-.2195.195l-2.255 2.2185c-1.1558 1.137-1.1558 2.9895 0 4.1265.5778.5685 1.3371.8535 2.0979.8535.7609 0 1.5187-.285 2.0965-.8535l2.2551-2.2185c1.1557-1.137 1.1557-2.988 0-4.1265-.3081-.303-.6755-.531-1.0917-.678-.0229-.1335-.0351-.267-.0351-.3975 0-.639.2562-1.245.7258-1.707.7547.2535 1.424.6645 1.9897 1.221.7516.7395 1.2487 1.674 1.4392 2.7045l.026.1425.1144-.0915c.0777-.0615.1509-.1275.2211-.1965l2.255-2.2185c1.1557-1.137 1.1572-2.9895 0-4.1265-.5596-.5505-1.3037-.8535-2.098-.8535z"/><path d="m46.753 17h-29.506c-8.4072 0-15.247 6.729-15.247 15s6.8398 15 15.247 15h29.506c8.4072 0 15.247-6.729 15.247-15s-6.8398-15-15.247-15zm-14.5532 23.517c-.4865.099-1.0338.117-1.4058-.2655-.1373.3105-.4575.147-.7045.1065-.0228.063-.0426.1185-.064.1815-.8218.054-1.4378-.771-1.8296-1.3935-.7777-.414-1.6604-.666-2.4548-1.0995-.0458.714.1129 1.599-.5779 2.0595-.035 1.3725 2.1102.162 2.3069 1.185-.1524.0165-.3217-.024-.4437.0914-.5595.5356-1.2014-.4049-1.8464-.0164-.866.429-.9529.78-2.0248.8685-.0594-.0885-.0351-.1471.0152-.201.3019-.345.3233-.7515.8386-.8986-.5305-.0824-.9743.2056-1.421.4336-.5809.234-.5763-.528-1.4698.0404-.0991-.0794-.0518-.1514.0046-.2129.2271-.273.526-.3135.863-.2985-1.6574-.909-2.438 1.1115-3.2034.1065-.2302.06-.3171.2639-.462.408-.125-.135-.0305-.2985-.0244-.4575-.1494-.069-.3385-.102-.2943-.3375-.2927-.0975-.497.0735-.715.2355-.1968-.15.1326-.369.1936-.525.1753-.3.5748-.0615.7775-.2775.5764-.3225 1.3799.201 2.0386.1125.5077.063 1.1359-.45.8812-.9616-.5427-.6824-.4467-1.5749-.4589-2.3909-.0671-.4755-1.2274-1.0815-1.5628-1.5945-.4147-.462-.7379-.9975-1.0612-1.524-1.1664-2.2215-.7989-5.076-2.2687-7.1385-.6648.3615-1.5309.1905-2.1041-.294-.3095.2775-.3233.6405-.3476 1.026-.7426-.7305-.6496-2.1105-.0565-2.9235.2425-.321.5322-.585.8554-.8175.0732-.0525.0976-.1035.096-.1845.5871-2.598 4.5909-2.097 5.8564-.2565.9179 1.1325 1.1954 2.631 2.2368 3.6825 1.4011 1.509 2.9975 2.838 4.2904 4.4445 1.2229 1.4685 2.0965 3.1905 2.8589 4.926.311.576.3141 1.2825.7745 1.7745.2272.297 1.3372 1.1055 1.0963 1.392.1387.2969 1.1755.7065.8157.9945zm19.4459-8.862-2.255 2.2185c-.6008.591-1.3432 1.032-2.1483 1.2735l-.0412.012-.0152.039c-.2623.681-.6602 1.2885-1.1847 1.803l-2.2551 2.2185c-.9834.9675-2.2915 1.5-3.6852 1.5-1.3935 0-2.7017-.5325-3.6852-1.5-2.0323-1.9995-2.0323-5.2515 0-7.251l2.2551-2.2185c.6038-.594 1.3265-1.0215 2.1453-1.269l.0411-.012.0153-.039c.2622-.681.6617-1.29 1.1877-1.809l2.255-2.2185c.9834-.9675 2.2917-1.5 3.6852-1.5 1.3936 0 2.7018.5325 3.6852 1.5.9835.9675 1.5248 2.2545 1.5248 3.6255s-.5413 2.6595-1.5248 3.6255z"/><path d="m23.0271 37.8319c-.1982.759-.2623 2.0505-1.2655 2.088-.0823.4381.308.603.6648.462.3522-.159.5198.126.6388.4095.5443.078 1.3494-.1785 1.3799-.813-.8127-.4605-1.0643-1.3365-1.4165-2.148z"/></g></svg>