<svg fill="none" height="64" viewBox="0 0 64 64" width="64" xmlns="http://www.w3.org/2000/svg" xmlns:xlink="http://www.w3.org/1999/xlink"><mask id="a" height="53" maskUnits="userSpaceOnUse" width="53" x="5" y="6"><path d="m58 6h-53v52.527h53z" fill="#fff"/></mask><g mask="url(#a)"><path d="m25.3279 25.1197v-4.9901c0-.4202.1577-.7355.5252-.9455l10.033-5.7778c1.3656-.7879 2.9941-1.1554 4.6747-1.1554 6.3031 0 10.2955 4.8851 10.2955 10.0851 0 .3676 0 .7878-.0527 1.2081l-10.4005-6.0933c-.6302-.3676-1.2608-.3676-1.891 0zm23.427 19.4352v-11.9239c0-.7357-.3154-1.2608-.9455-1.6284l-13.1842-7.6689 4.3072-2.4689c.3676-.2099.6829-.2099 1.0505 0l10.0328 5.7779c2.8892 1.6811 4.8325 5.2526 4.8325 8.7193 0 3.9919-2.3635 7.6689-6.0933 9.1924zm-26.5261-10.5054-4.3072-2.5211c-.3675-.21-.5252-.5253-.5252-.9455v-11.5559c0-5.6203 4.3072-9.87528 10.1378-9.87528 2.2064 0 4.2545.73565 5.9884 2.04868l-10.3478 5.9884c-.6302.3675-.9454.8927-.9454 1.6283v15.2329zm9.2711 5.3576-6.172-3.4666v-7.3535l6.172-3.4667 6.1717 3.4667v7.3535zm3.9658 15.9685c-2.2063 0-4.2544-.7356-5.9883-2.0487l10.3477-5.9883c.6303-.3675.9455-.8927.9455-1.6284v-15.2328l4.36 2.5212c.3675.2099.5253.5251.5253.9454v11.5558c0 5.6204-4.36 9.8753-10.1902 9.8753zm-12.449-11.7135-10.033-5.778c-2.8892-1.681-4.83242-5.2526-4.83242-8.7192 0-4.0446 2.41632-7.6689 6.14542-9.1924v11.9761c0 .7356.3154 1.2608.9456 1.6283l13.132 7.6163-4.3072 2.4689c-.3675.2099-.6829.2099-1.0504 0zm-.5775 8.6144c-5.9356 0-10.2954-4.4648-10.2954-9.9802 0-.4202.0526-.8405.1048-1.2608l10.3478 5.9883c.6301.3676 1.2608.3676 1.8909 0l13.1843-7.6161v4.99c0 .4203-.1577.7356-.5253.9455l-10.0328 5.7779c-1.3658.7878-2.9942 1.1554-4.6748 1.1554zm13.0265 6.2505c6.3559 0 11.6608-4.5172 12.8694-10.5055 5.8829-1.5234 9.6649-7.0387 9.6649-12.6589 0-3.6771-1.5756-7.2487-4.4122-9.8226.2626-1.1032.4203-2.2063.4203-3.3089 0-7.5113-6.0933-13.13204-13.132-13.13204-1.4179 0-2.7837.20986-4.1495.68289-2.3641-2.3113-5.6208-3.78195-9.1924-3.78195-6.3558 0-11.6607 4.5171-12.8693 10.5053-5.88295 1.5234-9.6649 7.0388-9.6649 12.659 0 3.6771 1.57564 7.2486 4.41219 9.8226-.26263 1.1031-.42027 2.2063-.42027 3.3089 0 7.5112 6.09328 13.132 13.13188 13.132 1.418 0 2.7838-.2099 4.1496-.6829 2.3635 2.3113 5.6202 3.7821 9.1923 3.7821z" fill="#00e7f6"/></g></svg>