<svg fill="none" height="64" viewBox="0 0 64 64" width="64" xmlns="http://www.w3.org/2000/svg" xmlns:xlink="http://www.w3.org/1999/xlink"><clipPath id="a"><path d="m2 14h60v36h-60z"/></clipPath><g clip-path="url(#a)"><path d="m18.8937 27.05c0 .75.0997 1.35.1993 1.8.1495.45.3489.9.6479 1.45.0996.15.1495.3.1495.45 0 .2-.0997.4-.3987.6l-1.2458.8501c-.1994.1-.3489.1999-.4984.1999-.1993 0-.3987-.1-.598-.3-.299-.3-.4983-.6-.6977-.95-.1993-.35-.3986-.7-.598-1.2-1.5448 1.85-3.4883 2.7501-5.88037 2.7501-1.69436 0-2.99004-.5001-3.98671-1.4501-.99668-.95-1.49502-2.25-1.49502-3.85 0-1.7.59801-3.1 1.79402-4.1s2.84053-1.55 4.88368-1.55c.6977 0 1.3954.05 2.0931.15.7475.1 1.495.25 2.2923.45v-1.45c0-1.5-.299-2.6-.9468-3.2-.6479-.6-1.6944-.9-3.2392-.9-.6977 0-1.39537.1-2.14288.25-.74751.2-1.44518.4-2.14286.7-.299.1-.54817.2-.69767.25-.1495 0-.24917.05-.29901.05-.299 0-.39867-.2-.39867-.6v-1c0-.3.04984-.55.1495-.7.09967-.15.29901-.3.54818-.4.69767-.35 1.54485-.65 2.49169-.9.99668-.25 1.99332-.4 3.08972-.4 2.392 0 4.0864.55 5.2325 1.6 1.0964 1.1 1.6446 2.7 1.6446 4.95zm-8.0731 3.05c.6478 0 1.3455-.1 2.0432-.35s1.3455-.7 1.8937-1.3c.299-.4.5482-.8.6977-1.3.0996-.5.1993-1.05.1993-1.75v-.85c-.598-.15-1.196-.25-1.8439-.35-.6478-.1-1.2458-.1-1.8937-.1-1.3455 0-2.29231.25-2.98998.8-.64785.55-.99668 1.3-.99668 2.3 0 .95.24917 1.65.74751 2.1.49833.6 1.19601.8 2.14285.8zm15.9967 2.2c-.3489 0-.598-.05-.7475-.2-.1495-.1-.299-.4-.3987-.8l-4.6844-15.5c-.0997-.4-.1993-.65-.1993-.8 0-.3.1495-.5.4983-.5h1.9435c.3987 0 .6479.05.7974.2.1495.1.299.4.3987.8l3.3388 13.25 3.0897-13.25c.0997-.4.1994-.65.3987-.8.1495-.1.4485-.2.7973-.2h1.5947c.3987 0 .6479.05.7974.2.1495.1.299.4.3986.8l3.1396 13.4 3.4385-13.4c.0997-.4.2492-.65.3987-.8.1495-.1.3987-.2.7973-.2h1.8439c.299 0 .4983.15.4983.5 0 .1 0 .2-.0498.3 0 .1-.0499.3-.1495.5l-4.8339 15.5c-.0997.4-.2492.65-.3987.8-.1495.1-.3986.2-.7475.2h-1.6943c-.3987 0-.6479-.05-.7974-.2s-.299-.4-.3987-.8l-3.0897-12.9-3.0897 12.9c-.0996.4-.1993.65-.3986.8-.1495.15-.4485.2-.7974.2zm25.6644.5c-1.0465 0-2.093-.0999-3.0897-.3499-.9966-.25-1.794-.5001-2.2923-.8001-.299-.2-.5482-.4-.598-.55-.0499-.15-.1495-.4-.1495-.55v-1c0-.4.1495-.6.4485-.6.0996 0 .2491 0 .3488.05s.299.1.4983.2c.6977.3 1.3954.55 2.1927.7.7974.15 1.5947.25 2.3921.25 1.2458 0 2.2425-.2 2.8903-.65.6977-.45 1.0465-1.1 1.0465-1.9 0-.55-.1993-1-.5481-1.4-.3489-.4-1.0465-.7-1.9934-1.05l-2.8904-.9c-1.4451-.45-2.5415-1.15-3.1893-2.05-.6479-.9-.9967-1.85-.9967-2.9 0-.85.1993-1.6.5482-2.2.3488-.6.8472-1.2 1.4452-1.65s1.2956-.8 2.093-1.05c.7973-.25 1.6445-.35 2.4917-.35.4485 0 .897 0 1.3455.1.4485.05.897.15 1.2957.2.3986.1.7973.2 1.1461.3.3489.1.6479.25.8472.35.299.15.4984.3.598.5.0997.15.1994.4.1994.65v.95c0 .4-.1495.65-.4485.65-.1495 0-.3987-.1-.7475-.25-1.1462-.5-2.3921-.8-3.8373-.8-1.1461 0-2.0431.2-2.6412.55-.598.35-.9468.95-.9468 1.8 0 .55.1993 1.05.598 1.4.3987.4 1.1462.75 2.1927 1.1l2.8405.9c1.4452.45 2.4917 1.1 3.0897 1.9s.897 1.75.897 2.8c0 .85-.1993 1.65-.4983 2.3-.3488.7-.8472 1.3001-1.4452 1.7501-.598.5-1.3455.8499-2.1927 1.0999-.9966.4-1.9435.5-2.9402.5z" fill="#fff"/><path d="m56.2689 42.55c-6.5781 4.85-16.1462 7.45-24.319 7.45-11.5116 0-21.877-4.25-29.70095-11.35-.59801-.55-.04984-1.3.69767-.9 8.47178 4.95 18.88708 7.9 29.70098 7.9 7.2758 0 15.299-1.5 22.6744-4.65 1.0466-.45 1.9934.75.9469 1.55z" fill="#f90"/><path d="m58.9598 39.4501c-.8472-1.1-5.5316-.5-7.6744-.25-.6479.1-.7475-.5-.1495-.9 3.7375-2.65 9.9169-1.9 10.6146-1s-.1994 7.1-3.6877 10.05c-.5482.45-1.0465.2-.7974-.4.7974-2 2.5416-6.45 1.6944-7.5z" fill="#f90"/><g fill="#00e7f6"><path d="m18.8937 27.05c0 .75.0997 1.35.1993 1.8.1495.45.3489.9.6479 1.45.0996.15.1495.3.1495.45 0 .2-.0997.4-.3987.6l-1.2458.8501c-.1994.1-.3489.1999-.4984.1999-.1993 0-.3987-.1-.598-.3-.299-.3-.4983-.6-.6977-.95-.1993-.35-.3986-.7-.598-1.2-1.5448 1.85-3.4883 2.7501-5.88037 2.7501-1.69436 0-2.99004-.5001-3.98671-1.4501-.99668-.95-1.49502-2.25-1.49502-3.85 0-1.7.59801-3.1 1.79402-4.1s2.84053-1.55 4.88368-1.55c.6977 0 1.3954.05 2.0931.15.7475.1 1.495.25 2.2923.45v-1.45c0-1.5-.299-2.6-.9468-3.2-.6479-.6-1.6944-.9-3.2392-.9-.6977 0-1.39537.1-2.14288.25-.74751.2-1.44518.4-2.14286.7-.299.1-.54817.2-.69767.25-.1495 0-.24917.05-.29901.05-.299 0-.39867-.2-.39867-.6v-1c0-.3.04984-.55.1495-.7.09967-.15.29901-.3.54818-.4.69767-.35 1.54485-.65 2.49169-.9.99668-.25 1.99332-.4 3.08972-.4 2.392 0 4.0864.55 5.2325 1.6 1.0964 1.1 1.6446 2.7 1.6446 4.95zm-8.0731 3.05c.6478 0 1.3455-.1 2.0432-.35s1.3455-.7 1.8937-1.3c.299-.4.5482-.8.6977-1.3.0996-.5.1993-1.05.1993-1.75v-.85c-.598-.15-1.196-.25-1.8439-.35-.6478-.1-1.2458-.1-1.8937-.1-1.3455 0-2.29231.25-2.98998.8-.64785.55-.99668 1.3-.99668 2.3 0 .95.24917 1.65.74751 2.1.49833.6 1.19601.8 2.14285.8zm15.9967 2.2c-.3489 0-.598-.05-.7475-.2-.1495-.1-.299-.4-.3987-.8l-4.6844-15.5c-.0997-.4-.1993-.65-.1993-.8 0-.3.1495-.5.4983-.5h1.9435c.3987 0 .6479.05.7974.2.1495.1.299.4.3987.8l3.3388 13.25 3.0897-13.25c.0997-.4.1994-.65.3987-.8.1495-.1.4485-.2.7973-.2h1.5947c.3987 0 .6479.05.7974.2.1495.1.299.4.3986.8l3.1396 13.4 3.4385-13.4c.0997-.4.2492-.65.3987-.8.1495-.1.3987-.2.7973-.2h1.8439c.299 0 .4983.15.4983.5 0 .1 0 .2-.0498.3 0 .1-.0499.3-.1495.5l-4.8339 15.5c-.0997.4-.2492.65-.3987.8-.1495.1-.3986.2-.7475.2h-1.6943c-.3987 0-.6479-.05-.7974-.2s-.299-.4-.3987-.8l-3.0897-12.9-3.0897 12.9c-.0996.4-.1993.65-.3986.8-.1495.15-.4485.2-.7974.2zm25.6644.5c-1.0465 0-2.093-.0999-3.0897-.3499-.9966-.25-1.794-.5001-2.2923-.8001-.299-.2-.5482-.4-.598-.55-.0499-.15-.1495-.4-.1495-.55v-1c0-.4.1495-.6.4485-.6.0996 0 .2491 0 .3488.05s.299.1.4983.2c.6977.3 1.3954.55 2.1927.7.7974.15 1.5947.25 2.3921.25 1.2458 0 2.2425-.2 2.8903-.65.6977-.45 1.0465-1.1 1.0465-1.9 0-.55-.1993-1-.5481-1.4-.3489-.4-1.0465-.7-1.9934-1.05l-2.8904-.9c-1.4451-.45-2.5415-1.15-3.1893-2.05-.6479-.9-.9967-1.85-.9967-2.9 0-.85.1993-1.6.5482-2.2.3488-.6.8472-1.2 1.4452-1.65s1.2956-.8 2.093-1.05c.7973-.25 1.6445-.35 2.4917-.35.4485 0 .897 0 1.3455.1.4485.05.897.15 1.2957.2.3986.1.7973.2 1.1461.3.3489.1.6479.25.8472.35.299.15.4984.3.598.5.0997.15.1994.4.1994.65v.95c0 .4-.1495.65-.4485.65-.1495 0-.3987-.1-.7475-.25-1.1462-.5-2.3921-.8-3.8373-.8-1.1461 0-2.0431.2-2.6412.55-.598.35-.9468.95-.9468 1.8 0 .55.1993 1.05.598 1.4.3987.4 1.1462.75 2.1927 1.1l2.8405.9c1.4452.45 2.4917 1.1 3.0897 1.9s.897 1.75.897 2.8c0 .85-.1993 1.65-.4983 2.3-.3488.7-.8472 1.3001-1.4452 1.7501-.598.5-1.3455.8499-2.1927 1.0999-.9966.4-1.9435.5-2.9402.5z"/><path d="m56.2689 42.55c-6.5781 4.85-16.1462 7.45-24.319 7.45-11.5116 0-21.877-4.25-29.70095-11.35-.59801-.55-.04984-1.3.69767-.9 8.47178 4.95 18.88708 7.9 29.70098 7.9 7.2758 0 15.299-1.5 22.6744-4.65 1.0466-.45 1.9934.75.9469 1.55z"/><path d="m58.9598 39.4501c-.8472-1.1-5.5316-.5-7.6744-.25-.6479.1-.7475-.5-.1495-.9 3.7375-2.65 9.9169-1.9 10.6146-1s-.1994 7.1-3.6877 10.05c-.5482.45-1.0465.2-.7974-.4.7974-2 2.5416-6.45 1.6944-7.5z"/></g></g></svg>