<?xml version="1.0" encoding="UTF-8"?>
<svg width="16px" height="16px" viewBox="0 0 16 16" version="1.1" xmlns="http://www.w3.org/2000/svg" xmlns:xlink="http://www.w3.org/1999/xlink">
    <title>Frame</title>
    <defs>
        <path d="M0,0 L16,0 L16,16 L0,16 L0,0 Z" id="path-1"></path>
        <linearGradient x1="-1.76074433e-14%" y1="39.5946618%" x2="99.0257473%" y2="39.5946618%" id="linearGradient-2">
            <stop stop-color="color(display-p3 0.533 0.384 1.000)" offset="0%"></stop>
            <stop stop-color="color(display-p3 0.169 0.573 1.000)" offset="15.1906687%"></stop>
            <stop stop-color="color(display-p3 0.039 0.698 1.000)" offset="32.8589379%"></stop>
            <stop stop-color="color(display-p3 0.016 0.784 0.941)" offset="49.4700612%"></stop>
            <stop stop-color="color(display-p3 0.000 0.875 0.616)" offset="64.1690341%"></stop>
            <stop stop-color="color(display-p3 0.353 0.847 0.188)" offset="79.6219406%"></stop>
            <stop stop-color="color(display-p3 0.965 0.745 0.020)" offset="91.0893794%"></stop>
            <stop stop-color="color(display-p3 0.984 0.714 0.016)" offset="100%"></stop>
        </linearGradient>
    </defs>
    <g id="Frame" stroke="none" fill="none" xlink:href="#path-1" fill-rule="evenodd" stroke-width="1">
        <g id="Group" transform="translate(1, 0)" fill="url(#linearGradient-2)">
            <path d="M2.85159651,4.25959484 L7.11099964,2.80004911 L11.3708041,4.25959484 L11.3860535,8.32510743 C11.3804353,8.93839165 11.3788301,11.4213874 7.11099964,12.8082505 C2.8435705,11.4213874 2.8419653,8.93839165 2.83634709,8.32510743 L2.85159651,4.25959484 Z M7.11099964,16 C7.11099964,16 14.2224452,13.975887 14.2156231,9.12972376 C14.2304712,4.43796194 14.2156231,2.36041743 14.2156231,2.36041743 L7.11099964,0 L0.00677751895,2.36041743 C0.00677751895,2.36041743 -0.00847189869,4.43796194 0.00677751895,9.12972376 C0,13.975887 7.11099964,16 7.11099964,16 L7.11099964,16 Z" id="Fill-1" fill-rule="nonzero"></path>
        </g>
    </g>
</svg>