<svg height="100" viewBox="0 0 366 100" width="366" xmlns="http://www.w3.org/2000/svg" xmlns:xlink="http://www.w3.org/1999/xlink"><linearGradient id="a" x1="-0%" x2="99.025747%" y1="39.594662%" y2="39.594662%"><stop offset="0" stop-color="#8862ff"/><stop offset=".151906687" stop-color="#2b92ff"/><stop offset=".328589379" stop-color="#0ab2ff"/><stop offset=".494700612" stop-color="#04c8f0"/><stop offset=".641690341" stop-color="#00df9d"/><stop offset=".796219406" stop-color="#5ad830"/><stop offset=".910893794" stop-color="#f6be05"/><stop offset="1" stop-color="#fbb604"/></linearGradient><path d="m0 80.402h356.848v-5.082h-356.848zm329.888-21.09-8.696-27.585h7.141l5.413 18.543h.231l6.22-18.543h6.277l6.219 18.543h.23l5.471-18.543h7.141l-8.754 27.585h-7.198l-6.162-18.717h-.173l-6.162 18.717zm-81.493 0h-7.314v-40.312h7.486l18.256 27.93h.173v-27.93h7.313v40.312h-7.486l-18.256-27.931h-.172zm-22.23 0h-6.911v-27.585h6.22l.403 4.204h.172c1.325-2.937 4.205-4.722 7.545-4.722.978 0 1.9.172 2.591.46v6.335c-.806-.115-1.613-.173-2.361-.173-5.068 0-7.659 2.707-7.659 8.35zm-25.226-22.575c3.341 0 5.817 1.785 6.45 5.758h-13.706c.922-3.8 3.686-5.758 7.256-5.758zm-.058 23.265c6.566 0 11.576-3.455 13.016-9.329h-6.508c-1.094 2.246-3.455 3.513-6.392 3.513-3.973 0-6.968-2.303-7.544-6.968h20.617c.172-.979.23-1.728.23-2.591 0-8.294-5.644-13.591-13.361-13.591-8.293 0-14.339 5.989-14.339 14.685 0 8.465 5.816 14.281 14.281 14.281zm-51.372-.69-8.696-27.585h7.141l5.413 18.543h.231l6.219-18.543h6.277l6.22 18.543h.23l5.471-18.543h7.141l-8.754 27.585h-7.198l-6.162-18.717h-.173l-6.161 18.717zm-24.535-22.114c4.261 0 7.314 3.224 7.314 8.35 0 5.068-3.053 8.35-7.314 8.35-4.262 0-7.313-3.282-7.313-8.35 0-5.126 3.051-8.35 7.313-8.35zm0 22.804c8.293 0 14.34-5.931 14.34-14.454s-6.047-14.512-14.34-14.512-14.34 5.989-14.34 14.512 6.047 14.454 14.34 14.454zm-39.22-14.454c0-5.241 2.995-8.35 7.141-8.35 4.204 0 7.199 3.109 7.199 8.35 0 5.183-2.995 8.292-7.199 8.292-4.146 0-7.141-3.109-7.141-8.292zm21.365 0c0-8.696-5.528-14.512-12.612-14.512-3.8 0-7.198 1.669-8.638 4.203h-.23l-.288-3.512h-6.277v40.484h6.91v-16.24h.173c1.44 2.362 4.607 4.031 8.35 4.031 7.026 0 12.612-5.816 12.612-14.454zm-34.441-3.513v17.277h-6.91v-15.262c0-4.779-1.786-6.679-4.78-6.679-3.341 0-5.702 2.361-5.702 7.025v14.916h-6.91v-15.262c0-4.837-1.67-6.679-4.722-6.679-3.398 0-5.702 2.418-5.702 7.025v14.916h-6.91v-27.585h6.277l.288 3.512h.23c1.67-2.591 4.952-4.203 8.351-4.203 3.455 0 6.162 1.612 7.716 4.722h.173c1.901-2.822 5.298-4.722 9.214-4.722 5.644 0 9.387 3.858 9.387 10.999zm-47.685 17.277h-24.993v-40.312h24.993v6.68h-17.679v10.136h15.951v6.507h-15.951v10.308h17.679zm262.623-24.92 10.614-3.715 10.615 3.715.038 10.348c-.014 1.561-.018 7.881-10.653 11.411-10.634-3.53-10.638-9.85-10.652-11.411zm10.614 29.883s17.721-5.152 17.704-17.487c.037-11.942 0-17.23 0-17.23l-17.704-6.008-17.703 6.008s-.038 5.288 0 17.23c-.016889 12.335 17.703 17.487 17.703 17.487z" fill="url(#a)" fill-rule="evenodd"/></svg>